<?xml version="1.0" encoding="UTF-8"?>
<svg id="Ebene_1" data-name="Ebene 1" xmlns="http://www.w3.org/2000/svg" viewBox="0 0 532.8 119.16">
  <defs>
    <style>
      .cls-1 {
        fill: #1d1d1d;
      }
    </style>
  </defs>
  <path class="cls-1" d="M35.81.29c-1.78.25-3.53.69-5.2,1.31-1.68.63-3.28,1.43-4.76,2.39-1.47.95-2.82,2.06-4,3.29-1.17,1.21-2.16,2.55-2.97,3.98-.27.48-.52.98-.73,1.48-.26.61-.5,1.23-.72,1.86-.23.66-.44,1.32-.64,1.98-.18.62-.33,1.25-.47,1.88-.11.51-.19,1.02-.25,1.54-.07.57-.11,1.14-.14,1.72-.04.87-.07,1.74-.08,2.61-.03,1.78-.05,3.57-.07,5.35l-.1,9.08H0v6.4h15.73v72.1h7.97V45.18h23.07v-6.4h-23.07v-8.33c0-2.3.03-4.6.09-6.9.03-1.32.14-2.64.32-3.96.14-.98.36-1.95.67-2.9.32-.98.73-1.93,1.21-2.86.46-.87,1-1.71,1.63-2.49.58-.72,1.25-1.38,2-1.95.76-.58,1.58-1.08,2.47-1.48.97-.44,1.98-.8,3.03-1.08.58-.15,1.18-.23,1.79-.24,11-.02,21.99-.04,32.99-.06,18.04-.03,36.09-.05,54.13-.05,50.21-.01,100.42-.03,150.63-.04l238.28-.05V0l-237.65.02c-43.21,0-86.43,0-129.64.02-21.38,0-42.77.02-64.15.04-14.48.02-28.96.03-43.44.05-.75,0-1.5.05-2.25.16h0Z"/>
  <path class="cls-1" d="M170.9,70.45c-.04-.98-.13-1.96-.27-2.93-.25-1.75-.6-3.49-1.02-5.21-.39-1.57-.88-3.12-1.47-4.64-.56-1.44-1.22-2.85-1.97-4.21-.75-1.35-1.59-2.66-2.52-3.92-.49-.66-1.01-1.29-1.56-1.91-.6-.67-1.24-1.32-1.89-1.95-.65-.62-1.32-1.22-2.01-1.8-.62-.51-1.26-1-1.94-1.45-.57-.38-1.16-.74-1.77-1.06-.76-.4-1.53-.79-2.31-1.15-.78-.36-1.57-.7-2.37-1.03-.65-.26-1.31-.49-1.98-.68-2.03-.58-4.1-1-6.21-1.26-2.19-.26-4.4-.37-6.62-.33-2.19.05-4.38.25-6.54.6-2.04.34-4.04.84-5.98,1.52-2.02.7-3.96,1.55-5.82,2.56-1.84.99-3.57,2.13-5.18,3.4-1.58,1.24-3.02,2.61-4.32,4.09-1.26,1.43-2.35,2.97-3.26,4.59-.09.17-.19.33-.29.49-.09.14-.18.28-.28.41-.08.11-.16.22-.25.33-.03.03-.07.05-.11.05-.06,0-.1-.04-.1-.09-.02-1.77-.04-3.55-.05-5.32-.02-2.18-.03-4.37-.04-6.55,0-3.07-.01-6.15-.01-9.22V12.61h-7.76v104.67h7.76v-6.96c0-.89,0-1.78.01-2.67,0-.75.02-1.5.04-2.25.02-.66.04-1.32.05-1.98,0-.04.03-.07.07-.07s.08.02.1.05c.11.13.21.26.31.39.12.16.24.32.35.48.13.19.26.38.38.57.79,1.23,1.68,2.4,2.66,3.52.98,1.12,2.04,2.18,3.18,3.17,1.11.96,2.29,1.86,3.54,2.67,1.18.77,2.44,1.46,3.74,2.04.59.26,1.19.5,1.81.71.76.26,1.52.5,2.29.73.78.23,1.57.44,2.37.63.68.16,1.36.3,2.05.41.81.13,1.62.21,2.44.25,1.22.05,2.44.09,3.66.1,1.22.01,2.43,0,3.65-.04.81-.02,1.62-.09,2.41-.21,1.89-.28,3.76-.67,5.59-1.18,1.72-.48,3.39-1.09,5-1.82,1.6-.73,3.12-1.58,4.56-2.54,1.51-1.01,2.94-2.12,4.26-3.32,1.88-1.7,3.58-3.55,5.08-5.54,1.52-2.02,2.83-4.15,3.92-6.38,1.15-2.36,2.08-4.8,2.78-7.3.76-2.72,1.31-5.49,1.67-8.28.13-.99.2-1.99.23-2.99.04-1.5.05-3.01.04-4.51-.01-1.5-.04-3-.1-4.5h0ZM162.75,79.73c-.16,2.11-.44,4.21-.84,6.3-.36,1.91-.86,3.79-1.49,5.65-.59,1.73-1.31,3.43-2.16,5.07-.82,1.59-1.78,3.12-2.86,4.57-1.4,1.88-3.02,3.62-4.84,5.19-1.68,1.44-3.57,2.67-5.63,3.65-2.01.96-4.17,1.65-6.41,2.06-2.35.43-4.75.6-7.14.5-1.94-.08-3.88-.3-5.78-.65-1.74-.32-3.43-.81-5.06-1.45-1.6-.63-3.11-1.41-4.52-2.33-1.5-.98-2.9-2.08-4.18-3.28-1.25-1.18-2.39-2.44-3.4-3.79-1.01-1.34-1.89-2.75-2.63-4.23-.75-1.49-1.36-3.04-1.82-4.62-.47-1.63-.81-3.29-1-4.97-.1-.9-.16-1.81-.17-2.72-.03-1.85-.04-3.7-.04-5.55,0-1.85.01-3.7.04-5.55.01-.96.07-1.92.17-2.87.18-1.71.49-3.41.94-5.08.43-1.62,1-3.21,1.7-4.76.7-1.53,1.52-3.01,2.47-4.42.96-1.43,2.05-2.8,3.24-4.09.58-.63,1.21-1.23,1.86-1.8.7-.6,1.43-1.18,2.18-1.72.75-.54,1.54-1.05,2.34-1.52.75-.44,1.54-.85,2.34-1.21.68-.31,1.38-.58,2.1-.81.88-.28,1.76-.54,2.66-.76.93-.24,1.87-.44,2.82-.62.86-.16,1.72-.29,2.59-.39.7-.08,1.4-.12,2.11-.12,1.05,0,2.1,0,3.15.03,1.04.03,2.08.07,3.11.13.6.03,1.2.11,1.8.23,1.98.39,3.91.97,5.76,1.73,1.77.73,3.43,1.65,4.95,2.74,1.54,1.11,2.94,2.38,4.14,3.78,1.3,1.51,2.43,3.12,3.38,4.82.87,1.56,1.6,3.19,2.16,4.86.61,1.81,1.09,3.65,1.42,5.51.36,2,.58,4.03.66,6.05.08,2.16.04,4.32-.13,6.47h0Z"/>
  <path class="cls-1" d="M304.58,70.6c-.47-3.78-1.41-7.51-2.81-11.11-1.28-3.3-3.1-6.4-5.39-9.23-2.17-2.67-4.79-5.03-7.78-6.97-2.99-1.95-6.31-3.47-9.82-4.5-1.45-.43-2.92-.77-4.42-1.04-1.6-.28-3.21-.5-4.83-.64-1.68-.15-3.36-.22-5.05-.22-1.7,0-3.4.07-5.09.21-3.9.33-7.73,1.14-11.39,2.41-3.55,1.23-6.87,2.93-9.85,5.05-2.98,2.11-5.59,4.62-7.73,7.43-2.21,2.89-3.96,6.04-5.2,9.37-.44,1.18-.83,2.37-1.16,3.58-.32,1.16-.59,2.34-.79,3.52-.22,1.27-.38,2.54-.49,3.81-.12,1.49-.2,2.98-.24,4.47-.04,1.5-.03,2.99,0,4.49.03,1.26.12,2.51.26,3.76.13,1.17.32,2.33.56,3.49.25,1.22.55,2.43.9,3.64.77,2.64,1.84,5.21,3.21,7.65,1.36,2.42,3.01,4.71,4.91,6.82,1.86,2.05,3.96,3.91,6.28,5.55,2.22,1.57,4.65,2.88,7.24,3.9,2.46.97,5.02,1.7,7.65,2.18,2.83.52,5.71.82,8.6.91,2.91.08,5.83-.05,8.72-.41,2.73-.34,5.41-.92,8.01-1.73,2.3-.72,4.52-1.65,6.61-2.78,2.09-1.12,4.04-2.44,5.83-3.92,1.83-1.52,3.48-3.19,4.93-5,1.51-1.89,2.83-3.89,3.95-5.99,1.08-2.02,1.96-4.12,2.64-6.27.72-2.28,1.27-4.61,1.62-6.96.38-2.49.57-5.01.58-7.52,0-2.66-.15-5.32-.48-7.96h0ZM296.11,86.96c-.49,2.65-1.23,5.25-2.23,7.78-.89,2.26-2.09,4.42-3.57,6.41-1.08,1.46-2.32,2.82-3.71,4.07-1.35,1.21-2.84,2.29-4.44,3.22-1.62.94-3.35,1.72-5.16,2.34-1.9.65-3.85,1.14-5.85,1.47-1.02.17-2.05.28-3.08.33-1.33.07-2.66.11-3.99.11s-2.65-.04-3.98-.11c-1.02-.05-2.03-.17-3.03-.34-1.58-.27-3.13-.62-4.65-1.07-1.41-.41-2.79-.93-4.11-1.54-1.3-.6-2.54-1.3-3.71-2.08-1.22-.82-2.37-1.71-3.44-2.68-.63-.57-1.24-1.16-1.83-1.77-.54-.56-1.06-1.15-1.55-1.75-.49-.61-.95-1.24-1.38-1.88-.47-.7-.91-1.42-1.32-2.14-.56-.99-1.07-2.01-1.51-3.05-.46-1.08-.87-2.19-1.21-3.31-.36-1.16-.66-2.34-.9-3.53-.25-1.23-.45-2.48-.58-3.72-.1-.91-.16-1.82-.17-2.73-.01-1.29,0-2.58.03-3.88.03-1.29.09-2.57.17-3.86.05-.89.15-1.77.3-2.65.19-1.13.43-2.25.72-3.37.29-1.13.63-2.24,1.01-3.34.37-1.05.78-2.08,1.24-3.1.4-.9.86-1.77,1.38-2.62,1.56-2.57,3.54-4.92,5.85-6.99,2.24-1.99,4.82-3.64,7.65-4.9,2.9-1.29,6.01-2.16,9.21-2.58,3.45-.46,6.95-.53,10.42-.21,3.58.33,7.08,1.17,10.36,2.49,3.09,1.24,5.89,3.01,8.24,5.2,2.44,2.28,4.39,4.93,5.77,7.84,1.54,3.25,2.6,6.67,3.16,10.16.48,3.01.72,6.05.72,9.09s-.26,5.81-.79,8.68h0Z"/>
  <path class="cls-1" d="M360.49,37.09c-1.44.16-2.86.39-4.27.68-1.34.28-2.65.63-3.94,1.06-1.24.41-2.45.89-3.62,1.44-1.15.54-2.26,1.15-3.31,1.83-.9.58-1.75,1.2-2.56,1.88-.89.75-1.75,1.53-2.55,2.35-.82.83-1.6,1.7-2.32,2.59-.68.84-1.3,1.71-1.87,2.61-.13.2-.26.4-.39.6-.11.17-.23.34-.36.5-.1.14-.21.27-.31.41-.02.03-.06.05-.1.05s-.07-.03-.08-.07c-.02-.67-.04-1.34-.05-2.01-.02-.77-.03-1.54-.04-2.3,0-.92-.01-1.85-.01-2.77v-7.15h-7.76v78.5h7.76v-23.32c0-3.36,0-6.72.01-10.08,0-2.56.02-5.11.04-7.67.02-1.98.04-3.95.06-5.93,0-.53.04-1.06.1-1.59.11-1.02.27-2.04.47-3.05.18-.9.4-1.8.68-2.68.27-.87.6-1.73.97-2.57.4-.91.85-1.81,1.33-2.69,1.02-1.84,2.25-3.58,3.67-5.19,1.37-1.55,2.94-2.95,4.68-4.17,1.7-1.19,3.55-2.19,5.52-2.99,1.97-.79,4.04-1.36,6.16-1.71.72-.12,1.45-.19,2.18-.21,1.04-.04,2.08-.05,3.12-.04,1.04,0,2.07.04,3.1.1.7.04,1.4.12,2.08.25.95.18,1.89.41,2.81.7.84.26,1.65.57,2.44.95.77.37,1.51.79,2.2,1.26.74.51,1.45,1.05,2.11,1.64,1.16,1.03,2.17,2.18,3.02,3.42.9,1.32,1.65,2.71,2.24,4.17.67,1.66,1.17,3.36,1.51,5.1.4,2.06.69,4.14.85,6.23.05.68.08,1.35.09,2.03.02,2.15.05,4.3.07,6.45.02,2.69.04,5.39.04,8.08.01,3.28.02,6.56.02,9.84v23.67h7.78l-.07-26.87c-.02-5.84-.03-11.68-.05-17.52,0-2.05-.03-4.11-.06-6.17-.02-1.13-.06-2.26-.13-3.38-.04-.77-.14-1.53-.27-2.28-.14-.75-.28-1.5-.44-2.24-.13-.62-.28-1.24-.45-1.86-.15-.57-.33-1.14-.52-1.71-.2-.6-.41-1.19-.64-1.77-.82-2.1-1.89-4.11-3.2-6-1.21-1.74-2.68-3.32-4.38-4.7-1.66-1.35-3.54-2.47-5.56-3.34-2.13-.91-4.37-1.58-6.68-2-.73-.13-1.47-.22-2.21-.27-1.1-.07-2.21-.13-3.31-.16-1.11-.03-2.22-.05-3.33-.04-.76,0-1.52.05-2.28.13h0Z"/>
  <path class="cls-1" d="M489.56,37.01c-2.7.24-5.37.66-8,1.25-2.39.53-4.71,1.27-6.95,2.2-2.18.91-4.25,2.01-6.18,3.28-2.04,1.34-3.95,2.84-5.72,4.47-1.66,1.54-3.19,3.2-4.55,4.95-1.35,1.73-2.54,3.57-3.56,5.48-1.05,1.97-1.91,4-2.6,6.09-.73,2.23-1.29,4.5-1.69,6.79-.16.93-.26,1.86-.29,2.8-.06,1.61-.09,3.21-.1,4.82-.01,1.6,0,3.21.04,4.81.02.91.11,1.82.26,2.73.28,1.69.65,3.38,1.09,5.04.41,1.54.92,3.05,1.51,4.53.57,1.41,1.23,2.78,1.97,4.12.74,1.32,1.56,2.59,2.47,3.81,1.84,2.46,4,4.71,6.46,6.69,2.36,1.91,5.01,3.52,7.87,4.77,2.91,1.28,6,2.2,9.19,2.74,3.41.57,6.88.81,10.35.7,1.81-.06,3.62-.19,5.42-.39,1.68-.19,3.35-.47,4.99-.83,1.57-.34,3.11-.77,4.62-1.27,1.48-.49,2.92-1.07,4.31-1.73l1.93-.91.06-3.72.06-3.72-.9.55c-1.02.63-2.09,1.2-3.18,1.71-1.15.54-2.34,1.02-3.55,1.45-1.26.44-2.54.83-3.84,1.16-1.34.34-2.69.62-4.06.84-1.03.17-2.07.28-3.12.34-1.33.07-2.66.11-3.99.1-1.31,0-2.61-.04-3.92-.11-.95-.05-1.89-.17-2.82-.35-.98-.19-1.95-.41-2.91-.67-.88-.23-1.75-.5-2.6-.81-.81-.29-1.61-.63-2.38-.99-.77-.37-1.53-.77-2.26-1.21-1.93-1.16-3.71-2.51-5.3-4.03-1.61-1.55-3.03-3.25-4.23-5.07-1.26-1.91-2.29-3.93-3.08-6.04-.85-2.25-1.48-4.56-1.89-6.9-.14-.81-.24-1.64-.29-2.46-.07-1.25-.13-2.5-.16-3.75-.03-1.26-.04-2.52-.03-3.79,0-.88.06-1.75.16-2.63.13-1.16.31-2.32.54-3.47.23-1.15.51-2.29.85-3.43.32-1.1.69-2.18,1.11-3.25.39-.99.83-1.97,1.33-2.93.96-1.84,2.11-3.6,3.43-5.25,1.3-1.63,2.77-3.14,4.4-4.51,1.58-1.34,3.3-2.53,5.14-3.56,1.78-1,3.67-1.81,5.65-2.44,2.32-.73,4.72-1.23,7.17-1.5,2.52-.27,5.07-.32,7.6-.14,2.57.18,5.11.59,7.58,1.21,2.46.62,4.84,1.46,7.11,2.51.33.15.65.3.98.45.28.13.56.26.85.39.24.11.49.22.73.33.04.02.08.03.12.05.02,0,.05,0,.06-.02,0,0,0,0,0-.02.02-.36.03-.72.05-1.08.02-.42.03-.84.04-1.26,0-.5.01-1.01.01-1.51v-3.94l-1.94-.66c-1.37-.47-2.77-.9-4.18-1.27-1.28-.34-2.59-.63-3.9-.86-1.32-.23-2.65-.4-3.99-.51-1.48-.12-2.96-.2-4.44-.22-.54,0-1.08-.02-1.63-.02-.5,0-1.01,0-1.51,0-.42,0-.84,0-1.26,0-.18,0-.35.01-.53.03h0Z"/>
  <polygon class="cls-1" points="59.35 78.03 59.35 117.28 63.23 117.28 67.11 117.28 67.11 78.03 67.11 38.78 63.23 38.78 59.35 38.78 59.35 78.03 59.35 78.03"/>
  <polygon class="cls-1" points="192.93 78.03 192.93 117.28 196.81 117.28 200.69 117.28 200.69 78.03 200.69 38.78 196.81 38.78 192.93 38.78 192.93 78.03 192.93 78.03"/>
  <polygon class="cls-1" points="420.46 78.03 420.46 117.28 424.34 117.28 428.22 117.28 428.22 78.03 428.22 38.78 424.34 38.78 420.46 38.78 420.46 78.03 420.46 78.03"/>
  <path class="cls-1" d="M518.44,29.28c.39.9.93,1.68,1.61,2.35.68.67,1.47,1.19,2.38,1.57.91.38,1.88.57,2.9.57s2-.19,2.9-.57c.91-.38,1.7-.91,2.38-1.57.68-.67,1.21-1.45,1.61-2.35.39-.9.59-1.86.59-2.89s-.2-2-.59-2.9c-.39-.91-.93-1.69-1.61-2.36-.68-.67-1.47-1.2-2.38-1.59-.91-.39-1.88-.59-2.9-.59s-2,.2-2.9.59c-.91.39-1.7.92-2.38,1.59-.68.67-1.21,1.45-1.61,2.36-.39.91-.59,1.88-.59,2.9s.2,1.99.59,2.89h0ZM519.52,23.93c.33-.77.78-1.43,1.35-2,.57-.57,1.24-1.02,2-1.34.77-.33,1.59-.49,2.46-.49s1.7.16,2.46.49c.77.33,1.43.78,2,1.34.57.57,1.02,1.24,1.35,2,.33.77.49,1.59.49,2.46s-.16,1.66-.49,2.43c-.33.77-.78,1.44-1.35,2.02-.57.58-1.24,1.03-2,1.36-.77.33-1.59.49-2.46.49s-1.7-.16-2.46-.49c-.77-.33-1.43-.78-2-1.36-.57-.58-1.02-1.25-1.35-2.02-.33-.77-.49-1.57-.49-2.43s.16-1.69.49-2.46h0ZM522.41,30.56h1.51v-3.51h1.08l1.97,3.51h1.84l-2.26-3.67c.59-.13,1.06-.39,1.41-.77.35-.38.52-.88.52-1.49,0-.46-.09-.84-.26-1.15-.17-.31-.41-.56-.71-.75-.3-.2-.63-.34-1-.43-.37-.09-.75-.13-1.15-.13h-2.95v8.4h0ZM523.92,25.84v-2.39h1.38c.39,0,.77.08,1.13.23.36.15.54.46.54.92,0,.5-.2.84-.59,1-.39.16-.81.25-1.25.25h-1.21Z"/>
</svg>